<?xml version="1.0" encoding="iso-8859-1"?>
<!-- Generator: Adobe Illustrator 16.0.0, SVG Export Plug-In . SVG Version: 6.00 Build 0)  -->
<!DOCTYPE svg PUBLIC "-//W3C//DTD SVG 1.1//EN" "http://www.w3.org/Graphics/SVG/1.1/DTD/svg11.dtd">
<svg version="1.1" id="Layer_1" xmlns="http://www.w3.org/2000/svg" xmlns:xlink="http://www.w3.org/1999/xlink" x="0px" y="0px"
	 width="362.981px" height="290.749px" viewBox="0 0 362.981 290.749" style="enable-background:new 0 0 362.981 290.749;"
	 xml:space="preserve">
<g>
	<path style="fill:#FFFFFF;" d="M64.93,109.289c-9.314,1.309-21.876-2.734-27.752-7.556l-10.487,20.87
		c8.312,6.932,22.834,9.998,37.045,8.001c22.556-3.17,35.805-16.651,35.836-32.876c0.065-34.905-45.704-18.783-45.686-28.132
		c0.006-3.338,3.939-6.364,9.826-7.192c9.465-1.329,18.436,1.812,23.175,6.089l9.667-20.574c-8.481-5.519-19.576-8.525-32.969-6.643
		C41.864,44.329,29.75,59.057,29.724,74.056c-0.064,34.562,45.854,17.173,45.835,27.75C75.553,105.504,72.438,108.235,64.93,109.289
		"/>
	<path style="fill:#FFFFFF;" d="M239.191,105.946c8.812-1.241,16.83-6.228,23.383-15.268l-0.02,9.871l24.998-3.513l0.159-85.148
		l-25.165,3.536l-0.021,10.053c-6.188-7.592-14.506-10.121-23.17-8.904c-19.763,2.777-34.825,21.638-34.878,49.485
		C204.423,94.972,219.746,108.677,239.191,105.946 M247.472,39.573c5.4-0.759,11.937,1.318,15.188,5.445l-0.05,25.916
		c-3.268,5.043-9.812,9.138-15.215,9.896c-9.949,1.399-17.29-5.669-17.268-18.375C230.151,49.767,237.524,40.973,247.472,39.573"/>
	<path style="fill:#FFFFFF;" d="M331.301,16.155l0.019-10.395l-25.146,3.534l-0.159,85.148l25.146-3.534l0.103-54.305
		c3.285-5.209,11.936-9.418,18.476-10.338c2.624-0.369,4.746-0.504,6.2-0.169L355.989,0C346.692,1.307,336.546,8.544,331.301,16.155
		"/>
	<path style="fill:#FFFFFF;" d="M321.464,172.977c-8.325,1.171-15.529,9.76-15.546,18.587c-0.019,8.988,7.156,15.558,15.486,14.386
		c8.325-1.17,15.362-9.738,15.38-18.723C336.801,178.399,329.791,171.807,321.464,172.977"/>
	<path style="fill:#FFFFFF;" d="M57.845,242.991c27.122-3.812,43.161-26.87,43.208-50.836c0.043-23.986-15.922-42.364-43.043-38.555
		c-26.786,3.766-42.828,26.644-42.872,50.627C15.095,228.196,31.057,246.754,57.845,242.991 M57.966,177.585
		c11.119-1.562,17.305,6.915,17.283,18.195c-0.02,11.46-6.24,21.682-17.361,23.244c-10.769,1.513-16.97-6.964-16.95-18.421
		C40.96,189.321,47.197,179.099,57.966,177.585"/>
	<path style="fill:#FFFFFF;" d="M112.435,210.293c-0.031,16.386,8.598,23.816,24.618,21.566c9.313-1.31,15.521-4.654,18.622-8.266
		l-4.862-19.761c-0.822,1.181-3.599,2.636-6.375,3.025c-4.247,0.598-6.848-2.751-6.841-7.68l0.036-18.787l-0.034,0.004l0.117-62.3
		l0.034-0.004l0.102-55.01c2.95-4.294,7.857-9.387,15.214-10.42c7.993-1.123,13.054,1.522,13.033,11.917L166,117.277l-0.031,16.894
		l-0.01,6.371l-13.059,1.835l-0.044,23.458l13.059-1.834l-0.072,38.784c-0.03,16.391,8.614,23.816,24.633,21.563
		c9.297-1.307,15.521-4.651,18.622-8.264l-4.862-19.758c-0.819,1.181-3.598,2.634-6.374,3.023c-4.246,0.598-6.85-2.754-6.839-7.678
		l0.057-31.206l16.003-2.248l0.042-23.464l-16.002,2.249l0.045-23.262l0.118-63.8c0.031-15.7-8.127-25.471-26.103-22.943
		c-13.226,1.858-22.552,9.682-27.294,16.338l0.078-42.844l-25.146,3.534l-0.209,111.589l-0.032,0.004l-0.145,77.495l0.033,0.052
		L112.435,210.293z"/>
	<path style="fill:#FFFFFF;" d="M297.481,207.2l0.153-85.166l-25.162,3.537l-0.019,10.054c-6.188-7.593-14.508-10.123-23.172-8.905
		c-19.764,2.778-34.825,21.639-34.879,49.503c-0.053,28.913,15.267,42.618,34.714,39.887c8.812-1.24,16.83-6.244,23.382-15.267
		l-0.019,9.872L297.481,207.2z M257.323,190.995c-9.967,1.399-17.293-5.687-17.269-18.377c0.024-12.704,7.378-21.48,17.345-22.878
		c5.4-0.761,11.915,1.317,15.183,5.44l-0.048,25.918C269.249,186.144,262.723,190.235,257.323,190.995"/>
	<polygon style="fill:#FFFFFF;" points="14.978,290.749 336.675,245.537 336.726,218.376 15.027,263.586 	"/>
</g>
</svg>
